<?xml version="1.0" encoding="UTF-8"?>
<svg version="1.1" xmlns="http://www.w3.org/2000/svg" width="48" height="48">
<path d="M0 0 C15.84 0 31.68 0 48 0 C48 15.84 48 31.68 48 48 C32.16 48 16.32 48 0 48 C0 32.16 0 16.32 0 0 Z " fill="#020101" transform="translate(0,0)"/>
<path d="M0 0 C2.31 0 4.62 0 7 0 C7 0.99 7 1.98 7 3 C7.99 3 8.98 3 10 3 C10 3.99 10 4.98 10 6 C10.66 6 11.32 6 12 6 C12 5.01 12 4.02 12 3 C13.32 3 14.64 3 16 3 C16 2.01 16 1.02 16 0 C17.98 0 19.96 0 22 0 C22 7.26 22 14.52 22 22 C20.02 22 18.04 22 16 22 C16 18.04 16 14.08 16 10 C15.01 10 14.02 10 13 10 C13 11.98 13 13.96 13 16 C12.01 16 11.02 16 10 16 C10 14.02 10 12.04 10 10 C9.01 10 8.02 10 7 10 C7 14.29 7 18.58 7 23 C4.69 23 2.38 23 0 23 C0 15.41 0 7.82 0 0 Z " fill="#E75478" transform="translate(13,12)"/>
</svg>
