<?xml version="1.0" standalone="no"?>
<!DOCTYPE svg PUBLIC "-//W3C//DTD SVG 20010904//EN"
 "http://www.w3.org/TR/2001/REC-SVG-20010904/DTD/svg10.dtd">
<svg version="1.0" xmlns="http://www.w3.org/2000/svg"
 width="1000.000000pt" height="1000.000000pt" viewBox="0 0 1000.000000 1000.000000"
 preserveAspectRatio="xMidYMid meet">

<g transform="translate(0.000000,1000.000000) scale(0.100000,-0.100000)"
fill="#000000" stroke="none">
<path d="M4537 8204 c-3 -3 -70 -7 -149 -8 -153 -3 -211 -14 -410 -79 l-98
-31 -1 -161 c-1 -88 -2 -178 -3 -200 l-1 -40 -40 2 c-41 3 -978 92 -1451 138
-239 24 -278 25 -460 16 -183 -8 -209 -12 -319 -44 -66 -20 -132 -40 -146 -45
l-26 -10 -7 -2523 c-4 -1388 -10 -2543 -13 -2567 -4 -26 -9 -40 -15 -34 -6 6
-25 4 -49 -5 -22 -7 -48 -15 -57 -17 -72 -13 -98 -21 -121 -32 -14 -8 -34 -14
-43 -14 -35 0 -192 -42 -227 -61 -19 -10 -30 -19 -24 -19 6 0 14 -8 17 -17 6
-17 28 -34 108 -80 44 -25 154 -62 283 -92 50 -12 133 -35 185 -51 153 -47
253 -64 390 -64 123 -1 461 15 715 34 237 18 988 60 992 56 2 -2 -40 -8 -94
-14 -88 -10 -113 -14 -163 -21 -11 -2 -10 -5 5 -11 19 -8 19 -9 -2 -9 -33 -1
-53 -12 -53 -27 0 -8 7 -14 15 -14 8 0 12 -6 10 -12 -5 -14 88 -73 165 -106
54 -23 189 -62 320 -92 52 -12 126 -32 165 -45 131 -44 271 -68 410 -69 150
-1 488 16 860 44 454 35 1775 125 2840 195 209 14 394 27 411 30 63 11 69 28
69 214 0 349 -26 5516 -28 5517 -1 1 -126 14 -277 28 -151 15 -387 38 -525 51
-137 13 -392 38 -565 54 -173 17 -549 53 -835 81 -1828 175 -1744 168 -1758
154z m-329 -495 c-3 -20 -13 -26 -78 -41 -80 -18 -110 -41 -110 -83 0 -22 23
-55 38 -55 4 1 34 7 67 15 82 20 85 19 85 -14 0 -28 -3 -30 -69 -45 -88 -20
-115 -20 -135 0 -22 22 -29 57 -24 115 7 73 43 106 139 129 41 10 78 14 82 10
5 -4 7 -18 5 -31z m-2481 -296 c-2 -25 -8 -29 -62 -43 -87 -22 -92 -25 -100
-60 -5 -23 -3 -37 8 -48 14 -13 24 -13 76 -2 33 7 64 11 68 9 7 -3 9 -28 4
-50 -2 -10 -139 -31 -159 -25 -41 13 -55 101 -26 162 20 41 23 44 99 65 86 25
94 24 92 -8z m2481 -2 c0 -22 -15 -45 -66 -101 l-67 -73 45 7 c25 4 55 10 68
13 21 5 23 3 20 -28 l-3 -33 -90 -17 c-128 -25 -135 -25 -135 9 1 19 19 46 66
96 36 38 63 70 61 73 -3 2 -24 -1 -48 -6 -70 -17 -79 -15 -79 18 0 28 1 29 98
49 131 27 129 27 130 -7z m-2481 -270 c2 -17 -12 -41 -54 -88 l-57 -65 45 7
c24 4 48 8 53 9 5 0 11 -11 12 -26 3 -30 1 -31 -96 -48 -36 -6 -75 -14 -87
-17 -20 -4 -23 -1 -23 24 0 22 14 42 55 83 30 30 55 58 55 63 0 8 -21 5 -87
-10 -19 -4 -23 -1 -23 21 0 15 7 29 16 33 26 10 168 41 178 39 5 -1 11 -13 13
-25z m2480 -85 c-9 -133 -51 -190 -135 -184 -66 4 -86 35 -90 142 l-4 83 99
20 c149 31 137 37 130 -61z m-2484 -223 c-1 -38 -5 -79 -8 -93 -9 -37 -54 -79
-92 -86 -67 -13 -103 41 -103 153 0 46 3 53 23 58 26 6 158 32 172 34 6 1 9
-26 8 -66z m2447 -22 c57 -56 53 -151 -10 -213 -32 -33 -44 -38 -82 -38 -59 0
-89 31 -96 99 -6 64 11 113 54 151 47 40 94 41 134 1z m-2489 -191 c25 -14 49
-62 49 -100 0 -95 -85 -164 -165 -134 -23 9 -45 57 -45 99 0 101 87 174 161
135z m2525 -96 c-1 -27 -10 -43 -34 -65 -18 -16 -32 -32 -32 -36 1 -5 15 -17
33 -28 24 -16 31 -27 32 -52 1 -40 -9 -41 -59 -3 -22 17 -44 30 -50 30 -6 0
-34 -23 -63 -52 l-53 -52 0 35 c0 27 8 43 35 69 19 19 35 37 35 41 0 4 -16 17
-35 29 -29 18 -35 28 -35 56 0 19 2 34 5 34 3 0 29 -16 57 -35 l52 -34 45 42
c25 22 48 45 49 49 9 20 19 4 18 -28z m-2481 -174 c-1 -18 -14 -44 -31 -61
l-28 -30 26 -22 c25 -20 43 -68 31 -81 -3 -3 -25 8 -50 25 l-43 30 -39 -30
c-64 -51 -69 -60 -41 -81 71 -53 73 -53 123 -10 25 22 48 40 51 40 18 0 -8
-68 -35 -91 l-30 -27 34 -20 c26 -17 33 -28 33 -52 0 -37 -6 -37 -58 0 l-42
30 -40 -37 c-22 -21 -42 -41 -44 -45 -8 -18 -22 -6 -22 19 0 18 13 40 36 64
l36 36 -36 23 c-36 21 -36 22 -36 90 0 67 1 69 37 98 l38 30 -38 22 c-31 19
-37 27 -37 57 l0 35 33 -22 c72 -48 74 -48 120 -2 23 23 45 42 48 42 4 0 6
-14 4 -30z m2480 -105 c-1 -27 -10 -43 -36 -65 -33 -29 -34 -30 -14 -46 11 -8
25 -18 32 -22 11 -7 26 -82 16 -82 -2 0 -27 16 -55 35 l-51 34 -59 -50 -58
-51 0 35 c0 27 8 42 35 66 19 17 35 34 35 38 0 4 -16 18 -35 31 -29 18 -35 28
-35 58 0 39 -2 39 67 -8 23 -15 45 -28 50 -28 5 0 29 20 53 45 24 25 47 45 51
45 3 0 5 -16 4 -35z m0 -355 c0 -91 -1 -95 -22 -98 -22 -3 -23 0 -23 62 0 59
-2 66 -20 66 -16 0 -19 -8 -22 -62 -3 -57 -5 -63 -25 -66 -22 -3 -23 0 -23 58
0 58 -1 61 -22 58 -20 -3 -22 -9 -23 -63 0 -54 -2 -60 -22 -63 -22 -3 -23 -1
-23 91 l0 94 98 10 c139 14 127 23 127 -87z m-2483 -105 c2 -47 0 -85 -4 -85
-3 0 -13 -3 -22 -6 -14 -5 -16 3 -16 56 0 53 -2 61 -17 58 -14 -3 -18 -14 -18
-58 0 -49 -2 -55 -22 -58 -22 -3 -23 0 -23 53 0 48 -3 56 -17 53 -14 -2 -19
-15 -21 -61 -3 -49 -6 -57 -22 -57 -18 0 -20 7 -20 84 l0 85 58 6 c31 3 64 8
72 9 8 2 27 4 42 5 l27 1 3 -85z m2480 -125 c-2 -46 -9 -95 -17 -109 -30 -59
-84 -80 -140 -57 -47 20 -65 64 -65 160 l0 74 103 9 c56 6 106 9 112 8 5 -1 8
-37 7 -85z m-2482 -95 c-5 -83 -7 -88 -38 -116 -22 -19 -43 -29 -65 -29 -67 0
-97 49 -97 162 l0 56 78 7 c42 3 86 7 97 9 11 1 22 1 25 0 3 -1 3 -41 0 -89z
m-53 -2331 c-3 -3 -12 -4 -19 -1 -8 3 -5 6 6 6 11 1 17 -2 13 -5z m-7 -34 c13
-8 13 -10 -2 -10 -9 0 -20 5 -23 10 -8 13 5 13 25 0z m-86 -38 c2 -4 -4 -8
-15 -8 -10 0 -19 4 -19 8 0 4 6 8 14 8 8 0 17 -4 20 -8z m83 2 c-3 -3 -12 -4
-19 -1 -8 3 -5 6 6 6 11 1 17 -2 13 -5z m6 -31 c-7 -2 -19 -2 -25 0 -7 3 -2 5
12 5 14 0 19 -2 13 -5z m-86 -19 c-3 -3 -12 -4 -19 -1 -8 3 -5 6 6 6 11 1 17
-2 13 -5z m3 -24 c0 -13 -11 -13 -30 0 -12 8 -11 10 8 10 12 0 22 -4 22 -10z
m90 -30 c0 -13 -11 -13 -30 0 -12 8 -11 10 8 10 12 0 22 -4 22 -10z m-90 -20
c0 -13 -11 -13 -30 0 -12 8 -11 10 8 10 12 0 22 -4 22 -10z m2570 -10 c0 -10
-38 -1 -45 10 -2 4 7 5 20 2 14 -2 25 -8 25 -12z m-2483 -16 c-3 -3 -12 -4
-19 -1 -8 3 -5 6 6 6 11 1 17 -2 13 -5z m-101 -39 c-9 -9 -16 -13 -16 -8 0 12
22 34 28 28 2 -2 -3 -11 -12 -20z m104 16 c0 -17 -15 -19 -28 -5 -11 12 -9 14
8 14 11 0 20 -4 20 -9z m2465 -1 c-3 -5 -12 -7 -20 -3 -21 7 -19 13 6 13 11 0
18 -4 14 -10z m-2475 -30 c12 -8 11 -10 -7 -10 -13 0 -23 5 -23 10 0 13 11 13
30 0z m2364 -7 c-5 -5 -12 -12 -16 -18 -4 -6 -8 -2 -8 8 0 9 7 17 17 17 9 0
12 -3 7 -7z m103 1 c-3 -3 -12 -4 -19 -1 -8 3 -5 6 6 6 11 1 17 -2 13 -5z
m-2542 -24 c3 -5 1 -10 -4 -10 -6 0 -11 5 -11 10 0 6 2 10 4 10 3 0 8 -4 11
-10z m76 -8 c-7 -2 -18 1 -23 6 -8 8 -4 9 13 5 13 -4 18 -8 10 -11z m2472 1
c-7 -2 -19 -2 -25 0 -7 3 -2 5 12 5 14 0 19 -2 13 -5z m-106 -19 c-3 -3 -12
-4 -19 -1 -8 3 -5 6 6 6 11 1 17 -2 13 -5z m-2450 -28 c0 -11 -5 -13 -19 -5
-10 5 -18 12 -18 14 0 3 8 5 18 5 10 0 19 -7 19 -14z m79 -11 c-8 -8 -18 -15
-22 -15 -3 0 -1 7 6 15 7 8 17 15 22 15 5 0 3 -7 -6 -15z m2390 3 c4 -6 3 -8
-4 -4 -5 3 -12 1 -14 -6 -3 -8 -7 -6 -11 5 -7 20 17 24 29 5z m-2470 -30 c5
-7 3 -8 -6 -3 -7 4 -16 2 -21 -6 -7 -11 -9 -10 -9 4 0 19 25 23 36 5z m2568 3
c3 -4 -6 -6 -19 -3 -14 2 -25 6 -25 8 0 8 39 4 44 -5z m-2474 -28 c0 -11 -5
-11 -20 -3 -11 6 -20 12 -20 13 0 2 9 3 20 3 11 0 20 -6 20 -13z m2377 1 c-3
-3 -12 -4 -19 -1 -8 3 -5 6 6 6 11 1 17 -2 13 -5z m-2467 -23 c0 -5 -9 -7 -20
-4 -11 3 -20 7 -20 9 0 2 9 4 20 4 11 0 20 -4 20 -9z m2450 -41 c-6 -11 -13
-20 -16 -20 -2 0 0 9 6 20 6 11 13 20 16 20 2 0 0 -9 -6 -20z m113 14 c3 -3
-4 -15 -15 -26 -11 -11 -23 -17 -26 -13 -4 4 2 11 13 17 19 11 19 11 0 19 -19
7 -19 8 1 8 11 1 23 -2 27 -5z m-2473 -34 c0 -13 -11 -13 -30 0 -12 8 -11 10
8 10 12 0 22 -4 22 -10z m-96 -8 c2 -4 -4 -8 -14 -8 -10 0 -16 4 -14 8 3 4 9
8 14 8 5 0 11 -4 14 -8z m90 -31 c-7 -8 -35 9 -29 19 4 6 11 5 20 -3 7 -6 11
-14 9 -16z m2386 5 c0 -9 -8 -12 -27 -8 l-28 6 25 7 c14 4 26 7 28 8 1 1 2 -5
2 -13z m83 -3 c-7 -2 -19 -2 -25 0 -7 3 -2 5 12 5 14 0 19 -2 13 -5z m-2565
-30 c-10 -2 -18 -8 -18 -13 0 -5 8 -14 18 -20 16 -11 16 -11 -1 -6 -10 3 -21
6 -23 6 -2 0 -4 9 -4 20 0 14 6 20 23 19 16 -1 18 -2 5 -6z m96 -12 c4 -5 -3
-7 -14 -4 -23 6 -26 13 -6 13 8 0 17 -4 20 -9z m2373 -8 c-4 -3 -1 -13 6 -21
11 -13 9 -14 -10 -1 -16 9 -19 16 -10 21 15 9 23 10 14 1z m-2367 -25 c0 -4
-6 -8 -14 -8 -8 0 -17 4 -20 8 -2 4 4 8 15 8 10 0 19 -4 19 -8z m2450 -8 c0
-5 -5 -10 -11 -10 -5 0 -7 5 -4 10 3 6 8 10 11 10 2 0 4 -4 4 -10z m-2547 -7
c-7 -2 -19 -2 -25 0 -7 3 -2 5 12 5 14 0 19 -2 13 -5z m2460 -10 c-7 -2 -19
-2 -25 0 -7 3 -2 5 12 5 14 0 19 -2 13 -5z m-2462 -41 c-7 -2 -18 1 -23 6 -8
8 -4 9 13 5 13 -4 18 -8 10 -11z m92 11 c3 -5 -5 -8 -18 -8 -13 0 -21 3 -18 8
2 4 10 7 18 7 8 0 16 -3 18 -7z m2481 -2 c3 -4 -6 -6 -19 -3 -14 2 -25 6 -25
8 0 8 39 4 44 -5z m-104 -21 c13 -9 13 -10 0 -10 -8 0 -22 5 -30 10 -13 9 -13
10 0 10 8 0 22 -5 30 -10z m-2460 -27 c0 -3 -7 -2 -16 1 -13 5 -15 2 -11 -15
4 -16 3 -19 -5 -11 -15 15 -2 43 17 36 8 -3 15 -8 15 -11z m77 -9 c-3 -3 -12
-4 -19 -1 -8 3 -5 6 6 6 11 1 17 -2 13 -5z m13 -41 c0 -11 -5 -11 -20 -3 -11
6 -20 12 -20 13 0 2 9 3 20 3 11 0 20 -6 20 -13z m2470 10 c-1 -16 -30 -46
-37 -39 -4 4 -1 11 7 17 13 8 13 10 0 19 -12 8 -11 10 8 10 12 0 22 -3 22 -7z
m-2572 -24 c-11 -7 -10 -11 2 -19 8 -5 11 -10 5 -10 -16 0 -30 14 -31 31 -1
12 4 15 18 11 15 -4 17 -7 6 -13z m2462 17 c0 -2 -7 -7 -16 -10 -8 -3 -12 -2
-9 4 6 10 25 14 25 6z m-2385 -26 c3 -5 1 -10 -4 -10 -6 0 -11 5 -11 10 0 6 2
10 4 10 3 0 8 -4 11 -10z m2402 -12 c-3 -8 -6 -5 -6 6 -1 11 2 17 5 13 3 -3 4
-12 1 -19z m-2387 -18 c-20 -13 -30 -12 -30 1 0 5 4 8 9 4 5 -3 13 0 16 6 4 5
10 8 13 4 4 -3 0 -10 -8 -15z m-85 -10 c8 -13 -5 -13 -25 0 -13 8 -13 10 2 10
9 0 20 -4 23 -10z m2468 -7 c-7 -2 -21 -2 -30 0 -10 3 -4 5 12 5 17 0 24 -2
18 -5z m-2383 -13 c8 -5 11 -10 5 -10 -5 0 -17 5 -25 10 -8 5 -10 10 -5 10 6
0 17 -5 25 -10z m2371 -28 c-7 -2 -18 1 -23 6 -8 8 -4 9 13 5 13 -4 18 -8 10
-11z m100 -20 c-7 -2 -18 1 -23 6 -8 8 -4 9 13 5 13 -4 18 -8 10 -11z m-84 -8
c-3 -3 -12 -4 -19 -1 -8 3 -5 6 6 6 11 1 17 -2 13 -5z m3 -48 c0 -9 -8 -12
-27 -8 l-28 6 25 7 c14 4 26 7 28 8 1 1 2 -5 2 -13z m84 5 c4 -5 -3 -7 -14 -4
-23 6 -26 13 -6 13 8 0 17 -4 20 -9z m-94 -45 c0 -2 -9 -6 -20 -9 -11 -3 -20
-1 -20 4 0 5 9 9 20 9 11 0 20 -2 20 -4z m4 -75 c3 -4 -6 -6 -19 -3 -14 2 -25
6 -25 8 0 8 39 4 44 -5z m-24 -21 c0 -5 -5 -10 -11 -10 -5 0 -7 5 -4 10 3 6 8
10 11 10 2 0 4 -4 4 -10z m120 -20 c0 -6 -9 -2 -20 7 -11 10 -20 19 -20 21 0
1 9 -2 20 -8 11 -6 20 -15 20 -20z m-110 -20 c0 -5 -7 -7 -15 -4 -8 4 -15 8
-15 10 0 2 7 4 15 4 8 0 15 -4 15 -10z m103 -27 c-7 -2 -19 -2 -25 0 -7 3 -2
5 12 5 14 0 19 -2 13 -5z"/>
<path d="M4083 7057 l-53 -10 0 -42 c0 -41 22 -75 48 -75 47 0 82 45 82 105 0
38 2 38 -77 22z"/>
<path d="M1610 6823 c-38 -7 -49 -21 -44 -56 4 -31 26 -57 50 -57 6 0 23 9 38
21 20 16 26 29 26 60 0 42 -4 44 -70 32z"/>
<path d="M4084 6773 c-54 -10 -82 -95 -45 -132 46 -46 121 -6 121 64 0 33 -28
77 -47 74 -5 -1 -18 -4 -29 -6z"/>
<path d="M1581 6544 c-24 -31 -27 -62 -8 -88 18 -24 64 -23 89 1 22 23 27 75
8 98 -20 24 -66 19 -89 -11z"/>
<path d="M4065 5671 c-39 -6 -40 -7 -38 -45 7 -110 133 -96 133 15 0 43 -3 44
-95 30z"/>
<path d="M1564 5575 c-7 -18 3 -65 18 -82 6 -7 23 -13 39 -13 34 0 59 32 59
77 l0 33 -55 0 c-40 0 -57 -4 -61 -15z"/>
</g>
</svg>
